<svg viewBox="0 0 1104 1104" overflow="visible" xmlns="http://www.w3.org/2000/svg" width="200" height="200">
  <defs>
    <filter id="shadow" x="0" y="0" width="200%" height="200%">
      <feDropShadow dx="8" dy="8" stdDeviation="15" flood-color="#000" flood-opacity="0.4"/>
    </filter>
  </defs>

  <!-- 下层 -->
  <g fill="#3D61E3">
    <path d="M899.657143 811.885714c7.314286-18.285714 18.285714-36.571429 36.571428-58.514285 0-3.657143 3.657143-3.657143 3.657143-7.314286l3.657143-3.657143c40.228571-69.485714 69.485714-146.285714 76.8-230.4 29.257143-281.6-175.542857-512-457.142857-512C285.257143 0 32.914286 230.4 3.657143 512c-29.257143 281.6 175.542857 512 457.142857 512h508.342857l10.971429-87.771429s-80.457143-18.285714-87.771429-76.8c0-10.971429 0-18.285714 3.657143-25.6 0-10.971429 3.657143-14.628571 3.657143-21.942857zM727.771429 731.428571s-29.257143-18.285714-95.085715-14.628571c-73.142857 3.657143-164.571429 80.457143-263.314285 80.457143-95.085714 0-131.657143-25.6-128-54.857143 3.657143-25.6 40.228571-369.371429 51.2-501.028571 0 0 51.2 18.285714 120.685714 21.942857 36.571429 0 95.085714-7.314286 95.085714-7.314286l29.257143-73.142857s124.342857-47.542857 128 36.571428c-14.628571-54.857143-109.714286-21.942857-109.714286-21.942857l-14.628571 47.542857-149.942857 442.514286s69.485714-62.171429 124.342857-25.6c36.571429 25.6 25.6 73.142857 25.6 73.142857L669.257143 219.428571h21.942857c58.514286 3.657143 87.771429 36.571429 87.771429 36.571429l-51.2 475.428571z"></path>
    <path d="M716.8 844.8s-29.257143-32.914286-91.428571-32.914286c-73.142857 0-149.942857 29.257143-245.028572 29.257143-95.085714 0-128-65.828571-128-65.828571s29.257143 43.885714 128 43.885714c95.085714 0 179.2-47.542857 252.342857-47.542857 65.828571 0 95.085714 21.942857 95.085715 21.942857l-10.971429 51.2z"></path>
  </g>

  <!-- 上层 -->
  <g fill="#3D61E3" opacity="0.6" transform="translate(80,80)" filter="url(#shadow)">
    <path d="M899.657143 811.885714c7.314286-18.285714 18.285714-36.571429 36.571428-58.514285 0-3.657143 3.657143-3.657143 3.657143-7.314286l3.657143-3.657143c40.228571-69.485714 69.485714-146.285714 76.8-230.4 29.257143-281.6-175.542857-512-457.142857-512C285.257143 0 32.914286 230.4 3.657143 512c-29.257143 281.6 175.542857 512 457.142857 512h508.342857l10.971429-87.771429s-80.457143-18.285714-87.771429-76.8c0-10.971429 0-18.285714 3.657143-25.6 0-10.971429 3.657143-14.628571 3.657143-21.942857zM727.771429 731.428571s-29.257143-18.285714-95.085715-14.628571c-73.142857 3.657143-164.571429 80.457143-263.314285 80.457143-95.085714 0-131.657143-25.6-128-54.857143 3.657143-25.6 40.228571-369.371429 51.2-501.028571 0 0 51.2 18.285714 120.685714 21.942857 36.571429 0 95.085714-7.314286 95.085714-7.314286l29.257143-73.142857s124.342857-47.542857 128 36.571428c-14.628571-54.857143-109.714286-21.942857-109.714286-21.942857l-14.628571 47.542857-149.942857 442.514286s69.485714-62.171429 124.342857-25.6c36.571429 25.6 25.6 73.142857 25.6 73.142857L669.257143 219.428571h21.942857c58.514286 3.657143 87.771429 36.571429 87.771429 36.571429l-51.2 475.428571z"></path>
    <path d="M716.8 844.8s-29.257143-32.914286-91.428571-32.914286c-73.142857 0-149.942857 29.257143-245.028572 29.257143-95.085714 0-128-65.828571-128-65.828571s29.257143 43.885714 128 43.885714c95.085714 0 179.2-47.542857 252.342857-47.542857 65.828571 0 95.085714 21.942857 95.085715 21.942857l-10.971429 51.2z"></path>
  </g>
</svg>
